<?xml version="1.0" standalone="no"?>
<!DOCTYPE svg PUBLIC "-//W3C//DTD SVG 20010904//EN"
 "http://www.w3.org/TR/2001/REC-SVG-20010904/DTD/svg10.dtd">
<svg version="1.0" xmlns="http://www.w3.org/2000/svg"
 width="1600.000000pt" height="1600.000000pt" viewBox="0 0 1600.000000 1600.000000"
 preserveAspectRatio="xMidYMid meet">
<metadata>
Created by potrace 1.16, written by Peter Selinger 2001-2019
</metadata>
<g transform="translate(0.000000,1600.000000) scale(0.100000,-0.100000)"
fill="#000000" stroke="none">
<path d="M0 8000 l0 -8000 8000 0 8000 0 0 8000 0 8000 -8000 0 -8000 0 0
-8000z m7143 4510 c78 -91 115 -197 122 -345 l3 -90 44 -3 c142 -11 187 -198
67 -280 -28 -19 -44 -23 -89 -20 -30 2 -64 8 -74 13 -17 7 -18 5 -12 -19 26
-104 118 -213 199 -235 100 -28 225 6 344 95 53 39 71 63 55 73 -22 16 -42 59
-42 94 0 31 7 46 34 73 85 85 217 5 185 -112 -11 -39 -52 -74 -87 -74 -24 0
-25 -1 -19 -59 12 -115 74 -233 139 -267 82 -42 188 -4 292 106 36 39 66 74
66 79 0 5 -13 11 -28 14 -64 13 -104 89 -78 151 19 46 52 66 107 66 41 0 51
-4 78 -35 l31 -35 45 35 c48 36 174 81 200 71 22 -8 18 -23 -10 -42 -14 -9
-52 -49 -84 -89 -115 -143 -225 -328 -372 -627 l-82 -167 -30 46 c-34 50 -117
120 -193 160 -72 38 -246 98 -355 122 -302 65 -678 65 -989 0 -270 -56 -476
-161 -557 -282 l-30 -46 -71 144 c-154 313 -311 561 -445 702 -55 57 -66 74
-53 79 35 13 154 -30 222 -82 l31 -23 22 29 c26 36 87 55 126 40 49 -19 75
-59 75 -115 0 -46 -53 -105 -94 -105 -14 0 -26 -4 -26 -9 0 -20 138 -147 189
-175 63 -33 129 -38 179 -12 60 31 129 167 134 267 3 50 2 52 -26 60 -65 18
-101 88 -76 150 31 73 126 95 180 40 50 -50 52 -104 5 -160 l-26 -30 58 -46
c128 -101 268 -139 370 -100 61 23 122 85 161 165 39 77 41 95 10 85 -13 -4
-45 -10 -73 -12 -87 -8 -157 57 -158 145 -1 86 60 152 142 152 l41 0 0 78 c0
84 23 189 58 262 26 54 98 140 117 140 7 0 29 -18 48 -40z m220 -2165 c325
-43 674 -186 930 -382 87 -67 248 -224 320 -313 178 -221 314 -494 386 -775
68 -269 67 -686 -3 -963 -150 -592 -559 -1070 -1121 -1310 -180 -76 -299 -109
-505 -138 -141 -20 -485 -15 -623 10 -241 42 -491 138 -700 267 -391 243 -676
607 -821 1049 -75 232 -102 462 -86 732 11 180 21 250 55 382 83 320 244 609
473 847 332 347 738 546 1227 603 86 9 366 4 468 -9z m-5331 -1945 c70 -168
141 -334 157 -370 16 -36 79 -186 141 -333 63 -147 117 -264 121 -260 6 7 356
818 420 973 10 25 42 101 72 170 l54 125 52 3 51 3 0 -706 0 -706 -42 3 -43 3
-2 594 c-1 326 -3 595 -5 597 -3 3 -54 -116 -299 -701 -66 -159 -140 -335
-163 -390 l-43 -100 -51 -3 -52 -3 -21 48 c-42 97 -193 451 -239 563 -99 238
-227 536 -243 565 -15 28 -16 -10 -17 -572 l0 -603 -45 0 -45 0 0 705 0 706
57 -3 56 -3 129 -305z m1537 -52 c196 -386 229 -448 240 -448 3 0 39 64 78
143 40 78 132 259 206 402 l134 260 52 3 c51 3 52 2 45 -20 -4 -13 -28 -63
-54 -113 -26 -49 -83 -160 -127 -245 -44 -85 -126 -243 -182 -351 l-101 -196
0 -242 0 -241 -50 0 -50 0 0 237 0 236 -104 201 c-57 111 -154 300 -216 421
-62 121 -123 239 -136 262 -13 23 -24 44 -24 47 0 3 24 6 53 6 l52 0 184 -362z
m5983 -145 l3 -508 32 -68 c87 -183 290 -293 478 -258 166 31 309 168 353 341
8 30 13 200 15 520 l2 475 48 3 47 3 0 -493 c0 -411 -3 -504 -15 -553 -47
-179 -193 -326 -380 -381 -73 -21 -199 -23 -275 -5 -144 36 -274 137 -342 267
-67 128 -68 136 -68 678 l0 486 50 0 49 0 3 -507z m2228 457 l0 -50 -392 -2
-393 -3 0 -360 0 -360 338 -3 338 -2 -3 -48 -3 -47 -338 -3 -337 -2 2 -205 3
-206 390 -2 390 -2 3 -47 3 -48 -445 0 -446 0 0 720 0 720 445 0 445 0 0 -50z
m1230 0 l0 -50 -395 0 -395 0 2 -362 3 -363 338 -3 338 -2 -3 -48 -3 -47 -338
-3 -337 -2 2 -205 3 -206 390 -2 390 -2 3 -47 3 -48 -446 0 -445 0 0 720 1
720 444 0 445 0 0 -50z m615 -208 c99 -141 190 -270 202 -287 22 -29 255 -363
411 -587 41 -60 78 -108 83 -108 6 0 8 261 7 620 l-3 620 43 0 42 0 0 -720 0
-720 -38 0 c-37 0 -40 3 -109 103 -40 56 -125 176 -189 267 -64 91 -143 201
-174 245 -31 44 -144 203 -251 354 l-194 274 -3 -622 -2 -621 -45 0 -45 0 0
720 0 720 43 0 42 0 180 -258z m-5645 -2677 l0 -135 -887 2 -888 3 -3 133 -3
132 891 0 890 0 0 -135z"/>
<path d="M6970 10083 c-239 -23 -407 -68 -605 -163 -488 -235 -825 -669 -937
-1208 -30 -146 -32 -457 -4 -607 26 -143 85 -314 155 -454 228 -454 621 -765
1136 -897 107 -27 118 -28 370 -29 214 0 275 3 345 18 1095 233 1671 1408
1180 2406 -252 512 -745 858 -1320 927 -107 12 -237 16 -320 7z"/>
</g>
</svg>
